{
	"asset":{
		"copyright":"Daniel J. Hobson",
		"generator":"Khronos glTF Blender I/O v4.4.56",
		"version":"2.0"
	},
	"scene":0,
	"scenes":[
		{
			"name":"Scene",
			"nodes":[
				0
			]
		}
	],
	"nodes":[
		{
			"mesh":0,
			"name":"Maze"
		}
	],
	"meshes":[
		{
			"name":"Maze",
			"primitives":[
				{
					"attributes":{
						"POSITION":0,
						"NORMAL":1
					},
					"indices":2
				}
			]
		}
	],
	"accessors":[
		{
			"bufferView":0,
			"componentType":5126,
			"count":45590,
			"max":[
				18.714725494384766,
				2.399993658065796,
				19.29879379272461
			],
			"min":[
				-19.43527603149414,
				-6.4373016357421875e-06,
				-18.851207733154297
			],
			"type":"VEC3"
		},
		{
			"bufferView":1,
			"componentType":5126,
			"count":45590,
			"type":"VEC3"
		},
		{
			"bufferView":2,
			"componentType":5123,
			"count":73452,
			"type":"SCALAR"
		}
	],
	"bufferViews":[
		{
			"buffer":0,
			"byteLength":547080,
			"byteOffset":0,
			"target":34962
		},
		{
			"buffer":0,
			"byteLength":547080,
			"byteOffset":547080,
			"target":34962
		},
		{
			"buffer":0,
			"byteLength":146904,
			"byteOffset":1094160,
			"target":34963
		}
	],
	"buffers":[
		{
			"byteLength":1241064,
			"uri":"maze.bin"
		}
	]
}
