{
	"asset":{
		"copyright":"Ultimanium Designs 2026",
		"generator":"Khronos glTF Blender I/O v5.1.20",
		"version":"2.0"
	},
	"scene":0,
	"scenes":[
		{
			"extras":{
				"bc":{
					"snap":{
						"hit":false
					},
					"running":0,
					"collection":null,
					"shape":null
				},
				"materialiser_props":{
					"material_props":{
						"material_base_color":[
							0.800000011920929,
							0.800000011920929,
							0.800000011920929,
							1.0
						],
						"material_metallic":0.0,
						"material_roughness":0.5,
						"material_clearcoat":0.0,
						"material_clearcoat_roughness":0.029999999329447746,
						"material_emission_color":[
							1.0,
							1.0,
							1.0,
							1.0
						],
						"material_emission_strength":0.0,
						"material_ior":1.5,
						"material_transmission":0.0,
						"material_sheen":0.0,
						"material_sheen_roughness":0.5,
						"material_specular":0.5,
						"material_anisotropic":0.0,
						"material_anisotropic_rotation":0.0,
						"use_alpha":1,
						"blend_method":2,
						"show_backface":1,
						"use_texture":0,
						"diffuse_texture":"",
						"use_noise_texture":0,
						"metallic_texture":"",
						"roughness_texture":"",
						"normal_texture":"",
						"occlusion_ambient_texture":"",
						"opacity_texture":""
					}
				},
				"spacecraft_props":{},
				"spacecraft":{},
				"M3":{},
				"ai_buddy":{
					"username":"Owner",
					"password":"_C0nd0r1972_"
				},
				"qbaker":{},
				"ui_login_props":{
					"is_authenticated":0,
					"username":"Owner",
					"password":"_C0nd0r1972_"
				},
				"fxtools_props":{},
				"fxtools_greebles":[
					{}
				],
				"ypui":{
					"expand_channels":0,
					"expand_mask_channels":0,
					"show_bake_targets":0,
					"show_channels":1,
					"show_layers":1,
					"show_materials":0,
					"show_object":0,
					"show_stats":0,
					"show_support":0,
					"show_test":0,
					"tree_name":""
				}
			},
			"name":"Scene",
			"nodes":[
				0
			]
		}
	],
	"nodes":[
		{
			"extras":{
				"hops":{},
				"yp_decal":{}
			},
			"mesh":0,
			"name":"SplashShip1"
		}
	],
	"animations":[
		{
			"channels":[
				{
					"sampler":0,
					"target":{
						"node":0,
						"path":"translation"
					}
				},
				{
					"sampler":1,
					"target":{
						"node":0,
						"path":"rotation"
					}
				},
				{
					"sampler":2,
					"target":{
						"node":0,
						"path":"scale"
					}
				}
			],
			"name":"SplashShip1",
			"samplers":[
				{
					"input":5,
					"interpolation":"LINEAR",
					"output":6
				},
				{
					"input":5,
					"interpolation":"LINEAR",
					"output":7
				},
				{
					"input":8,
					"interpolation":"STEP",
					"output":9
				}
			]
		}
	],
	"materials":[
		{
			"doubleSided":true,
			"extras":{
				"yp":{
					"active_ypaint_node":"",
					"expand_content":0
				}
			},
			"name":"virtuall_material_0",
			"normalTexture":{
				"index":0
			},
			"pbrMetallicRoughness":{
				"baseColorTexture":{
					"index":1
				},
				"metallicFactor":0,
				"roughnessFactor":0.5
			}
		}
	],
	"meshes":[
		{
			"name":"SplashShip1",
			"primitives":[
				{
					"attributes":{
						"POSITION":0,
						"NORMAL":1,
						"TEXCOORD_0":2,
						"TANGENT":3
					},
					"indices":4,
					"material":0
				}
			]
		}
	],
	"textures":[
		{
			"sampler":0,
			"source":0
		},
		{
			"sampler":0,
			"source":1
		}
	],
	"images":[
		{
			"mimeType":"image/jpeg",
			"name":"virtuall_texture_0_ACEScg",
			"uri":"textures/virtuall_texture_0_ACEScg.jpg"
		},
		{
			"mimeType":"image/jpeg",
			"name":"virtuall_texture_1",
			"uri":"textures/virtuall_texture_1.jpg"
		}
	],
	"accessors":[
		{
			"bufferView":0,
			"componentType":5126,
			"count":777516,
			"max":[
				0.4403592050075531,
				0.1663813292980194,
				0.47827911376953125
			],
			"min":[
				-0.5172523260116577,
				-0.21579746901988983,
				-0.5109118223190308
			],
			"type":"VEC3"
		},
		{
			"bufferView":1,
			"componentType":5126,
			"count":777516,
			"type":"VEC3"
		},
		{
			"bufferView":2,
			"componentType":5126,
			"count":777516,
			"type":"VEC2"
		},
		{
			"bufferView":3,
			"componentType":5126,
			"count":777516,
			"type":"VEC4"
		},
		{
			"bufferView":4,
			"componentType":5125,
			"count":4465524,
			"type":"SCALAR"
		},
		{
			"bufferView":5,
			"componentType":5126,
			"count":201,
			"max":[
				8.333333333333334
			],
			"min":[
				0
			],
			"type":"SCALAR"
		},
		{
			"bufferView":6,
			"componentType":5126,
			"count":201,
			"type":"VEC3"
		},
		{
			"bufferView":7,
			"componentType":5126,
			"count":201,
			"type":"VEC4"
		},
		{
			"bufferView":8,
			"componentType":5126,
			"count":2,
			"max":[
				8.333333333333334
			],
			"min":[
				0
			],
			"type":"SCALAR"
		},
		{
			"bufferView":9,
			"componentType":5126,
			"count":2,
			"type":"VEC3"
		}
	],
	"bufferViews":[
		{
			"buffer":0,
			"byteLength":9330192,
			"byteOffset":0,
			"target":34962
		},
		{
			"buffer":0,
			"byteLength":9330192,
			"byteOffset":9330192,
			"target":34962
		},
		{
			"buffer":0,
			"byteLength":6220128,
			"byteOffset":18660384,
			"target":34962
		},
		{
			"buffer":0,
			"byteLength":12440256,
			"byteOffset":24880512,
			"target":34962
		},
		{
			"buffer":0,
			"byteLength":17862096,
			"byteOffset":37320768,
			"target":34963
		},
		{
			"buffer":0,
			"byteLength":804,
			"byteOffset":55182864
		},
		{
			"buffer":0,
			"byteLength":2412,
			"byteOffset":55183668
		},
		{
			"buffer":0,
			"byteLength":3216,
			"byteOffset":55186080
		},
		{
			"buffer":0,
			"byteLength":8,
			"byteOffset":55189296
		},
		{
			"buffer":0,
			"byteLength":24,
			"byteOffset":55189304
		}
	],
	"samplers":[
		{
			"magFilter":9729,
			"minFilter":9987
		}
	],
	"buffers":[
		{
			"byteLength":55189328,
			"uri":"splash-hover1.bin"
		}
	]
}
