{
	"asset":{
		"copyright":"Daniel J. Hobson 2025",
		"generator":"Khronos glTF Blender I/O v4.4.56",
		"version":"2.0"
	},
	"scene":0,
	"scenes":[
		{
			"extras":{
				"MustardUI_Settings":{},
				"kitops":{},
				"hot_node_props":{
					"pack_selected_name":"",
					"preset_selected":0
				},
				"univ_settings":{},
				"spacecraft_props":{
					"wing_1":{
						"enable":1,
						"attachment_section":0,
						"wing_type":6,
						"attachment_width":3.5,
						"end_point_width":1.5,
						"thickness":2.0,
						"wing_build_axis":0,
						"wing_bend_1":{},
						"wing_bend_2":{},
						"wing_bend_3":{},
						"wing_height":9.880000114440918,
						"length":6.799999713897705,
						"wing_depth":1.0500001907348633,
						"attachment_height":15.0,
						"wing_scale":7.789999961853027,
						"end_shape":0,
						"use_wing_tips":0,
						"wing_gapping":0.33000001311302185,
						"size":2.9100000858306885,
						"use_missiles":0,
						"missile_placement":0,
						"use_texture":1,
						"texture_image":"D:\\Blender\\Textures\\StarSparrow_Normal.png",
						"texture_scale_u":1.0,
						"transform_location":[
							3.1500000953674316,
							0.0,
							0.0
						],
						"material_base_color":[
							0.29433542490005493,
							0.314730703830719,
							0.3350398540496826,
							1.0
						],
						"texture_scale_v":1.0,
						"wing_tilt_forward":45.0,
						"rear_curving":3.3299999237060547,
						"front_curving":0.0,
						"front_curving_horiz":5.0,
						"rear_curving_horiz":5.0,
						"wing_curve_type":1
					},
					"wing_2":{
						"enable":1,
						"attachment_section":1,
						"wing_type":9,
						"attachment_width":4.289999961853027,
						"end_point_width":1.2000000476837158,
						"thickness":5.189999580383301,
						"wing_build_axis":0,
						"wing_bend_1":{},
						"wing_bend_2":{},
						"wing_bend_3":{},
						"wing_scale":6.710000038146973,
						"wing_height":15.879999160766602,
						"wing_tilt_forward":5.549999713897705,
						"wing_vertical_angle":-45.0,
						"flip_z":0,
						"flip_y":0,
						"flip_x":0,
						"wing_gapping":-1.2299998998641968,
						"transform_location":[
							1.0,
							0.0,
							-0.09000003337860107
						],
						"front_curve":5.0,
						"rear_curve":5.0,
						"end_shape":0,
						"wing_curve_type":1,
						"use_wing_tips":0,
						"size":6.059999942779541,
						"wing_depth":8.34000015258789,
						"use_texture":1,
						"wing_bend_count":0,
						"texture_image":"D:\\Blender\\Textures\\StarSparrow_Normal.png",
						"texture_scale_u":1.0
					},
					"wing_3":{
						"enable":1,
						"attachment_section":5,
						"wing_type":2,
						"attachment_width":4.0,
						"end_point_width":1.7999999523162842,
						"thickness":2.200000047683716,
						"wing_build_axis":0,
						"wing_bend_1":{},
						"wing_bend_2":{},
						"wing_bend_3":{},
						"wing_height":7.150000095367432,
						"transform_location":[
							0.75,
							0.0,
							0.9599999785423279
						],
						"wing_vertical_angle":-25.0,
						"use_wing_tips":0,
						"wing_scale":5.539999961853027,
						"use_texture":1,
						"texture_image":"D:\\Blender\\Textures\\StarSparrow_Normal.png",
						"wing_curve_type":1,
						"front_curving_horiz":10.219999313354492,
						"rear_curving_horiz":5.0,
						"front_curving":20.0,
						"rear_curving":20.0,
						"front_curve":5.0,
						"wing_gapping":0.699999988079071
					},
					"wing_4":{
						"enable":0,
						"attachment_section":2,
						"wing_type":2,
						"attachment_width":3.200000047683716,
						"end_point_width":1.399999976158142,
						"thickness":2.0,
						"wing_build_axis":0
					},
					"wing_5":{
						"enable":0,
						"attachment_section":2,
						"wing_type":8,
						"attachment_width":4.5,
						"end_point_width":2.0,
						"thickness":2.5,
						"wing_build_axis":0
					},
					"wing_6":{
						"enable":0,
						"attachment_section":1,
						"wing_type":8,
						"attachment_width":4.0,
						"end_point_width":1.7999999523162842,
						"thickness":2.299999952316284,
						"wing_build_axis":0
					},
					"nose_props":{
						"nose_length":2.869999885559082,
						"nose_height":1.96999990940094,
						"use_texture":1,
						"texture_image":"D:\\Blender\\Textures\\metal_plate_02_disp_2k.png",
						"texture_scale_u":5.170000076293945,
						"nose_style":2
					},
					"build_axis":1,
					"hull_bend_1":{},
					"hull_bend_2":{},
					"hull_bend_3":{},
					"cockpit_props":{
						"transform_location":[
							0.0,
							0.0,
							-0.33000004291534424
						],
						"style":2
					},
					"hull_use_texture":1,
					"hull_texture_image":"D:\\Blender\\Textures\\StarSparrow_Normal.png",
					"hull_texture_scale_u":1.0,
					"hull_style":6,
					"random_seed":197,
					"wing_count":3,
					"hull_material_base_color":[
						0.052544839680194855,
						0.05638178437948227,
						0.06019815802574158,
						1.0
					],
					"hull_material_metallic":1.0,
					"hull_material_roughness":0.8199999928474426,
					"front_hull_width":2.509999990463257,
					"detail_level":1.0,
					"rear_hull_size":0.3500000238418579,
					"rear_hull_shape":7
				},
				"uuid":"377a9185-86b5-4ad6-8ad0-ccd38060b12e",
				"assets reported":{},
				"assets used":{}
			},
			"name":"Scene",
			"nodes":[
				0
			]
		}
	],
	"nodes":[
		{
			"extras":{
				"hull_length":8.0,
				"hull_width":4.0,
				"hull_height":2.0,
				"hull_style":"HEAVY",
				"rear_hull_shape":"STAR",
				"rear_hull_size":0.800000011920929,
				"front_hull_width":2.0,
				"front_hull_height":1.5,
				"front_hull_length":2.5,
				"mirror_axis":"Y",
				"build_axis":"Y",
				"total_sections":29,
				"kitops":{},
				"nose_enable":true,
				"nose_shape":"CONE",
				"nose_length":2.869999885559082,
				"cockpit_transform_location":[
					0.0,
					0.0,
					-0.33000004291534424
				],
				"cockpit_transform_rotation":[
					0.0,
					0.0,
					0.0
				],
				"cockpit_transform_scale":[
					1.0,
					1.0,
					1.0
				],
				"nose_use_texture":true,
				"nose_texture_image":"D:\\Blender\\Textures\\metal_plate_02_disp_2k.png"
			},
			"mesh":0,
			"name":"Spacecraft_42",
			"rotation":[
				0,
				0.7071068286895752,
				0,
				0.7071068286895752
			]
		}
	],
	"animations":[
		{
			"channels":[
				{
					"sampler":0,
					"target":{
						"node":0,
						"path":"translation"
					}
				},
				{
					"sampler":1,
					"target":{
						"node":0,
						"path":"rotation"
					}
				},
				{
					"sampler":2,
					"target":{
						"node":0,
						"path":"scale"
					}
				}
			],
			"name":"Spacecraft_42Action",
			"samplers":[
				{
					"input":7,
					"interpolation":"LINEAR",
					"output":8
				},
				{
					"input":7,
					"interpolation":"LINEAR",
					"output":9
				},
				{
					"input":7,
					"interpolation":"LINEAR",
					"output":10
				}
			]
		}
	],
	"materials":[
		{
			"alphaMode":"BLEND",
			"doubleSided":true,
			"name":"Hull_HEAVY_Material",
			"pbrMetallicRoughness":{
				"baseColorTexture":{
					"index":0
				},
				"roughnessFactor":0.8199999928474426
			}
		},
		{
			"doubleSided":true,
			"emissiveFactor":[
				0.010000000298023226,
				0.020000000596046452,
				0.03000000163912775
			],
			"name":"Cockpit_HEXAGON_Material",
			"pbrMetallicRoughness":{
				"baseColorFactor":[
					0.3150636553764343,
					0,
					0.3999841511249542,
					1
				],
				"metallicFactor":0.800000011920929,
				"roughnessFactor":0.30000001192092896
			}
		},
		{
			"doubleSided":true,
			"name":"Wing_STANDARD_Material",
			"pbrMetallicRoughness":{
				"baseColorTexture":{
					"index":1
				},
				"metallicFactor":0.8999999761581421,
				"roughnessFactor":0.5199999809265137
			}
		},
		{
			"doubleSided":true,
			"name":"Wing_X_WING_Material",
			"pbrMetallicRoughness":{
				"baseColorTexture":{
					"index":2
				},
				"roughnessFactor":0.4699999988079071
			}
		},
		{
			"doubleSided":true,
			"name":"Wing_ENHANCED_Material",
			"pbrMetallicRoughness":{
				"baseColorTexture":{
					"index":3
				},
				"metallicFactor":0.8999999761581421,
				"roughnessFactor":0.4699999988079071
			}
		}
	],
	"meshes":[
		{
			"extras":{
				"qblock_props":{}
			},
			"name":"Spacecraft_Hull",
			"primitives":[
				{
					"attributes":{
						"POSITION":0,
						"NORMAL":1
					},
					"indices":2,
					"material":0
				},
				{
					"attributes":{
						"POSITION":0,
						"NORMAL":1
					},
					"indices":3,
					"material":1
				},
				{
					"attributes":{
						"POSITION":0,
						"NORMAL":1
					},
					"indices":4,
					"material":2
				},
				{
					"attributes":{
						"POSITION":0,
						"NORMAL":1
					},
					"indices":5,
					"material":3
				},
				{
					"attributes":{
						"POSITION":0,
						"NORMAL":1
					},
					"indices":6,
					"material":4
				}
			]
		}
	],
	"textures":[
		{
			"sampler":0,
			"source":0
		},
		{
			"sampler":0,
			"source":1
		},
		{
			"sampler":0,
			"source":1
		},
		{
			"sampler":0,
			"source":1
		}
	],
	"images":[
		{
			"mimeType":"image/png",
			"name":"StarSparrow_Normal",
			"uri":"textures/StarSparrow_Normal.png"
		},
		{
			"mimeType":"image/jpeg",
			"name":"StarSparrow_Normal",
			"uri":"textures/StarSparrow_Normal.jpg"
		}
	],
	"accessors":[
		{
			"bufferView":0,
			"componentType":5126,
			"count":25869,
			"max":[
				6.869999885559082,
				2.8910117149353027,
				5.749939918518066
			],
			"min":[
				-4,
				-3.071012020111084,
				-5.749939918518066
			],
			"type":"VEC3"
		},
		{
			"bufferView":1,
			"componentType":5126,
			"count":25869,
			"type":"VEC3"
		},
		{
			"bufferView":2,
			"componentType":5123,
			"count":27930,
			"type":"SCALAR"
		},
		{
			"bufferView":3,
			"componentType":5123,
			"count":1278,
			"type":"SCALAR"
		},
		{
			"bufferView":4,
			"componentType":5123,
			"count":9030,
			"type":"SCALAR"
		},
		{
			"bufferView":5,
			"componentType":5123,
			"count":144,
			"type":"SCALAR"
		},
		{
			"bufferView":6,
			"componentType":5123,
			"count":7938,
			"type":"SCALAR"
		},
		{
			"bufferView":7,
			"componentType":5126,
			"count":201,
			"max":[
				8.333333333333334
			],
			"min":[
				0
			],
			"type":"SCALAR"
		},
		{
			"bufferView":8,
			"componentType":5126,
			"count":201,
			"type":"VEC3"
		},
		{
			"bufferView":9,
			"componentType":5126,
			"count":201,
			"type":"VEC4"
		},
		{
			"bufferView":10,
			"componentType":5126,
			"count":201,
			"type":"VEC3"
		}
	],
	"bufferViews":[
		{
			"buffer":0,
			"byteLength":310428,
			"byteOffset":0,
			"target":34962
		},
		{
			"buffer":0,
			"byteLength":310428,
			"byteOffset":310428,
			"target":34962
		},
		{
			"buffer":0,
			"byteLength":55860,
			"byteOffset":620856,
			"target":34963
		},
		{
			"buffer":0,
			"byteLength":2556,
			"byteOffset":676716,
			"target":34963
		},
		{
			"buffer":0,
			"byteLength":18060,
			"byteOffset":679272,
			"target":34963
		},
		{
			"buffer":0,
			"byteLength":288,
			"byteOffset":697332,
			"target":34963
		},
		{
			"buffer":0,
			"byteLength":15876,
			"byteOffset":697620,
			"target":34963
		},
		{
			"buffer":0,
			"byteLength":804,
			"byteOffset":713496
		},
		{
			"buffer":0,
			"byteLength":2412,
			"byteOffset":714300
		},
		{
			"buffer":0,
			"byteLength":3216,
			"byteOffset":716712
		},
		{
			"buffer":0,
			"byteLength":2412,
			"byteOffset":719928
		}
	],
	"samplers":[
		{
			"magFilter":9729,
			"minFilter":9987
		}
	],
	"buffers":[
		{
			"byteLength":722340,
			"uri":"test2.bin"
		}
	]
}
