{
	"asset":{
		"generator":"Khronos glTF Blender I/O v5.0.21",
		"version":"2.0"
	},
	"scene":0,
	"scenes":[
		{
			"name":"Scene",
			"nodes":[
				0,
				1,
				2,
				3
			]
		}
	],
	"nodes":[
		{
			"mesh":0,
			"name":"Ship1"
		},
		{
			"mesh":1,
			"name":"Plane"
		},
		{
			"mesh":2,
			"name":"Plane.001",
			"rotation":[
				0.008338878862559795,
				-0.009925143793225288,
				0.019130179658532143,
				0.9997329711914062
			],
			"translation":[
				0.0530703067779541,
				0.04993089288473129,
				0.23258619010448456
			]
		},
		{
			"mesh":3,
			"name":"Plane.002",
			"rotation":[
				0,
				0.007224823348224163,
				0,
				0.9999738931655884
			],
			"translation":[
				0.46497029066085815,
				0.5571750998497009,
				1.0431289672851562
			]
		}
	],
	"animations":[
		{
			"channels":[
				{
					"sampler":0,
					"target":{
						"node":0,
						"path":"rotation"
					}
				},
				{
					"sampler":1,
					"target":{
						"node":0,
						"path":"scale"
					}
				}
			],
			"name":"Ship1Action",
			"samplers":[
				{
					"input":18,
					"interpolation":"LINEAR",
					"output":19
				},
				{
					"input":20,
					"interpolation":"STEP",
					"output":21
				}
			]
		}
	],
	"materials":[
		{
			"doubleSided":true,
			"name":"PBR_Material",
			"normalTexture":{
				"index":0
			},
			"pbrMetallicRoughness":{
				"baseColorTexture":{
					"index":1
				},
				"metallicRoughnessTexture":{
					"index":2
				}
			}
		},
		{
			"doubleSided":true,
			"name":"PBR_Material.001",
			"normalTexture":{
				"index":3
			},
			"pbrMetallicRoughness":{
				"baseColorTexture":{
					"index":4
				},
				"metallicRoughnessTexture":{
					"index":5
				}
			}
		},
		{
			"doubleSided":true,
			"name":"PBR_Material.002",
			"normalTexture":{
				"index":6
			},
			"pbrMetallicRoughness":{
				"baseColorTexture":{
					"index":7
				},
				"metallicRoughnessTexture":{
					"index":8
				}
			}
		},
		{
			"doubleSided":true,
			"name":"PBR_Material.003",
			"normalTexture":{
				"index":9
			},
			"pbrMetallicRoughness":{
				"baseColorTexture":{
					"index":10
				},
				"metallicRoughnessTexture":{
					"index":11
				}
			}
		}
	],
	"meshes":[
		{
			"name":"Ship1",
			"primitives":[
				{
					"attributes":{
						"POSITION":0,
						"NORMAL":1,
						"TEXCOORD_0":2,
						"TANGENT":3
					},
					"indices":4,
					"material":0
				}
			]
		},
		{
			"name":"Plane",
			"primitives":[
				{
					"attributes":{
						"POSITION":5,
						"NORMAL":6,
						"TEXCOORD_0":7,
						"TANGENT":8
					},
					"indices":9,
					"material":1
				}
			]
		},
		{
			"name":"Plane.001",
			"primitives":[
				{
					"attributes":{
						"POSITION":10,
						"NORMAL":11,
						"TEXCOORD_0":12,
						"TANGENT":13
					},
					"indices":9,
					"material":2
				}
			]
		},
		{
			"name":"Plane.002",
			"primitives":[
				{
					"attributes":{
						"POSITION":14,
						"NORMAL":15,
						"TEXCOORD_0":16,
						"TANGENT":17
					},
					"indices":9,
					"material":3
				}
			]
		}
	],
	"textures":[
		{
			"sampler":0,
			"source":0
		},
		{
			"sampler":0,
			"source":1
		},
		{
			"sampler":0,
			"source":2
		},
		{
			"sampler":0,
			"source":3
		},
		{
			"sampler":0,
			"source":4
		},
		{
			"sampler":0,
			"source":5
		},
		{
			"sampler":0,
			"source":3
		},
		{
			"sampler":0,
			"source":4
		},
		{
			"sampler":0,
			"source":6
		},
		{
			"sampler":0,
			"source":3
		},
		{
			"sampler":0,
			"source":4
		},
		{
			"sampler":0,
			"source":6
		}
	],
	"images":[
		{
			"mimeType":"image/png",
			"name":"armor-plating1_normal-ogl",
			"uri":"textures/armor-plating1_normal-ogl.png"
		},
		{
			"mimeType":"image/png",
			"name":"armor-plating1_albedo",
			"uri":"textures/armor-plating1_albedo.png"
		},
		{
			"mimeType":"image/png",
			"name":"armor-plating1_metallic-armor-plating1_roughness",
			"uri":"textures/armor-plating1_metallic-armor-plating1_roughness.png"
		},
		{
			"mimeType":"image/png",
			"name":"sci-fi-panel1-normal-ogl",
			"uri":"textures/sci-fi-panel1-normal-ogl.png"
		},
		{
			"mimeType":"image/png",
			"name":"sci-fi-panel1-albedo",
			"uri":"textures/sci-fi-panel1-albedo.png"
		},
		{
			"mimeType":"image/png",
			"name":"sci-fi-panel1-metallic-sci-fi-panel1-roughness",
			"uri":"textures/sci-fi-panel1-metallic-sci-fi-panel1-roughness.png"
		},
		{
			"mimeType":"image/png",
			"name":"sci-fi-panel1-metallic.png-sci-fi-panel1-roughness.png",
			"uri":"textures/sci-fi-panel1-metallic.png-sci-fi-panel1-roughness.png.png"
		}
	],
	"accessors":[
		{
			"bufferView":0,
			"componentType":5126,
			"count":1944,
			"max":[
				1,
				1,
				1
			],
			"min":[
				-1,
				-1,
				-1
			],
			"type":"VEC3"
		},
		{
			"bufferView":1,
			"componentType":5126,
			"count":1944,
			"type":"VEC3"
		},
		{
			"bufferView":2,
			"componentType":5126,
			"count":1944,
			"type":"VEC2"
		},
		{
			"bufferView":3,
			"componentType":5126,
			"count":1944,
			"type":"VEC4"
		},
		{
			"bufferView":4,
			"componentType":5123,
			"count":2916,
			"type":"SCALAR"
		},
		{
			"bufferView":5,
			"componentType":5126,
			"count":4,
			"max":[
				7.292842388153076,
				5.798138618469238,
				4.616415977478027
			],
			"min":[
				-7.207879543304443,
				0.1269364356994629,
				-8.7293119430542
			],
			"type":"VEC3"
		},
		{
			"bufferView":6,
			"componentType":5126,
			"count":4,
			"type":"VEC3"
		},
		{
			"bufferView":7,
			"componentType":5126,
			"count":4,
			"type":"VEC2"
		},
		{
			"bufferView":8,
			"componentType":5126,
			"count":4,
			"type":"VEC4"
		},
		{
			"bufferView":9,
			"componentType":5123,
			"count":6,
			"type":"SCALAR"
		},
		{
			"bufferView":10,
			"componentType":5126,
			"count":4,
			"max":[
				-7.138123035430908,
				5.792137145996094,
				4.643160343170166
			],
			"min":[
				-7.138123989105225,
				-13.08476448059082,
				-14.233743667602539
			],
			"type":"VEC3"
		},
		{
			"bufferView":11,
			"componentType":5126,
			"count":4,
			"type":"VEC3"
		},
		{
			"bufferView":12,
			"componentType":5126,
			"count":4,
			"type":"VEC2"
		},
		{
			"bufferView":13,
			"componentType":5126,
			"count":4,
			"type":"VEC4"
		},
		{
			"bufferView":14,
			"componentType":5126,
			"count":4,
			"max":[
				6.8268890380859375,
				5.427082061767578,
				3.299193859100342
			],
			"min":[
				6.826888084411621,
				-13.449819564819336,
				-15.577709197998047
			],
			"type":"VEC3"
		},
		{
			"bufferView":15,
			"componentType":5126,
			"count":4,
			"type":"VEC3"
		},
		{
			"bufferView":16,
			"componentType":5126,
			"count":4,
			"type":"VEC2"
		},
		{
			"bufferView":17,
			"componentType":5126,
			"count":4,
			"type":"VEC4"
		},
		{
			"bufferView":18,
			"componentType":5126,
			"count":201,
			"max":[
				8.333333333333334
			],
			"min":[
				0
			],
			"type":"SCALAR"
		},
		{
			"bufferView":19,
			"componentType":5126,
			"count":201,
			"type":"VEC4"
		},
		{
			"bufferView":20,
			"componentType":5126,
			"count":2,
			"max":[
				8.333333333333334
			],
			"min":[
				0
			],
			"type":"SCALAR"
		},
		{
			"bufferView":21,
			"componentType":5126,
			"count":2,
			"type":"VEC3"
		}
	],
	"bufferViews":[
		{
			"buffer":0,
			"byteLength":23328,
			"byteOffset":0,
			"target":34962
		},
		{
			"buffer":0,
			"byteLength":23328,
			"byteOffset":23328,
			"target":34962
		},
		{
			"buffer":0,
			"byteLength":15552,
			"byteOffset":46656,
			"target":34962
		},
		{
			"buffer":0,
			"byteLength":31104,
			"byteOffset":62208,
			"target":34962
		},
		{
			"buffer":0,
			"byteLength":5832,
			"byteOffset":93312,
			"target":34963
		},
		{
			"buffer":0,
			"byteLength":48,
			"byteOffset":99144,
			"target":34962
		},
		{
			"buffer":0,
			"byteLength":48,
			"byteOffset":99192,
			"target":34962
		},
		{
			"buffer":0,
			"byteLength":32,
			"byteOffset":99240,
			"target":34962
		},
		{
			"buffer":0,
			"byteLength":64,
			"byteOffset":99272,
			"target":34962
		},
		{
			"buffer":0,
			"byteLength":12,
			"byteOffset":99336,
			"target":34963
		},
		{
			"buffer":0,
			"byteLength":48,
			"byteOffset":99348,
			"target":34962
		},
		{
			"buffer":0,
			"byteLength":48,
			"byteOffset":99396,
			"target":34962
		},
		{
			"buffer":0,
			"byteLength":32,
			"byteOffset":99444,
			"target":34962
		},
		{
			"buffer":0,
			"byteLength":64,
			"byteOffset":99476,
			"target":34962
		},
		{
			"buffer":0,
			"byteLength":48,
			"byteOffset":99540,
			"target":34962
		},
		{
			"buffer":0,
			"byteLength":48,
			"byteOffset":99588,
			"target":34962
		},
		{
			"buffer":0,
			"byteLength":32,
			"byteOffset":99636,
			"target":34962
		},
		{
			"buffer":0,
			"byteLength":64,
			"byteOffset":99668,
			"target":34962
		},
		{
			"buffer":0,
			"byteLength":804,
			"byteOffset":99732
		},
		{
			"buffer":0,
			"byteLength":3216,
			"byteOffset":100536
		},
		{
			"buffer":0,
			"byteLength":8,
			"byteOffset":103752
		},
		{
			"buffer":0,
			"byteLength":24,
			"byteOffset":103760
		}
	],
	"samplers":[
		{
			"magFilter":9729,
			"minFilter":9987
		}
	],
	"buffers":[
		{
			"byteLength":103784,
			"uri":"test2.bin"
		}
	]
}
